<?xml version="1.0" standalone="no"?>
<!DOCTYPE svg PUBLIC "-//W3C//DTD SVG 20010904//EN"
 "http://www.w3.org/TR/2001/REC-SVG-20010904/DTD/svg10.dtd">
<svg version="1.0" xmlns="http://www.w3.org/2000/svg"
 width="50.000000pt" height="50.000000pt" viewBox="0 0 50.000000 50.000000"
 preserveAspectRatio="xMidYMid meet">
<metadata>
Created by potrace 1.16, written by Peter Selinger 2001-2019
</metadata>
<g transform="translate(0.000000,50.000000) scale(0.004883,-0.004883)"
fill="#000000" stroke="none">
<path d="M12 10228 c-9 -9 -12 -1160 -12 -5120 l0 -5108 5120 0 5120 0 0 5120
0 5120 -5108 0 c-3960 0 -5111 -3 -5120 -12z m3328 -2743 c0 -300 -2 -545 -5
-545 -8 0 -269 150 -292 169 -21 16 -21 26 -28 457 -4 243 -4 447 -1 453 5 7
60 11 167 11 l159 0 0 -545z m590 -165 c0 -390 -3 -710 -7 -710 -7 0 -114 62
-260 150 l-53 31 0 620 0 619 160 0 160 0 0 -710z m1684 665 c47 -25 239 -134
426 -243 729 -423 878 -509 999 -578 l126 -71 3 -630 2 -631 -62 -59 c-122
-114 -214 -199 -278 -258 -36 -32 -104 -96 -151 -141 l-87 -83 147 -89 c80
-49 210 -127 288 -173 l143 -84 -3 -845 -2 -845 -245 -136 c-135 -75 -366
-202 -515 -284 -148 -82 -421 -232 -605 -334 l-335 -186 -632 -3 -633 -2 0
165 0 165 580 0 c515 0 585 2 613 16 18 9 214 117 437 240 223 122 540 296
705 386 l300 164 3 670 2 670 -152 89 c-235 137 -413 242 -520 307 l-97 60
167 161 c92 89 221 214 287 277 66 64 164 158 218 210 l97 94 0 460 0 461 -98
57 c-53 31 -275 158 -492 283 -217 125 -485 280 -595 344 l-200 116 -627 3
-628 4 0 159 0 159 664 0 664 0 86 -45z m-69 -623 c94 -52 211 -118 260 -147
91 -54 697 -405 748 -434 l27 -15 0 -343 0 -342 -327 -314 c-437 -419 -423
-407 -437 -372 -5 13 -74 15 -536 15 l-530 0 0 144 0 143 494 5 494 4 128 119
c71 66 186 173 257 239 l127 119 0 207 0 208 -92 52 c-51 29 -192 110 -313
180 -381 219 -457 262 -575 325 -63 34 -150 81 -193 104 l-78 44 73 39 c200
109 262 137 283 126 11 -6 97 -54 190 -106z m-239 -510 c137 -75 253 -141 322
-185 l63 -40 -113 -59 c-62 -33 -118 -64 -124 -69 -8 -7 -32 1 -72 21 -113 57
-190 70 -424 70 l-208 0 0 155 0 155 233 0 234 0 89 -48z m-2253 -38 c18 -9
89 -50 160 -91 l127 -75 0 -472 0 -472 -152 -57 c-84 -32 -157 -57 -163 -57
-11 0 -22 1240 -11 1240 4 0 21 -7 39 -16z m712 -399 c83 -47 153 -85 157 -85
5 0 8 -92 8 -205 0 -113 -1 -205 -3 -205 -2 0 -71 -25 -153 -55 -82 -30 -152
-55 -156 -55 -5 0 -8 155 -8 345 0 190 1 345 3 345 1 0 70 -38 152 -85z m2105
-1342 c84 -48 147 -89 139 -91 -8 -2 -93 -35 -189 -72 l-175 -69 -722 -1 -723
-1 0 160 0 161 759 0 758 0 153 -87z m-1938 -189 l3 -142 -115 -45 c-516 -206
-790 -311 -795 -305 -5 5 -8 318 -3 322 5 4 292 113 673 256 55 21 129 49 165
63 76 30 68 46 72 -149z m568 -582 l0 -378 -143 -57 c-78 -31 -146 -57 -150
-57 -4 0 -7 170 -7 379 l0 378 138 56 c75 30 143 56 150 56 9 1 12 -81 12
-377z m-570 -912 l0 -1080 -160 0 -160 0 0 1023 0 1022 148 57 c81 32 153 57
160 58 9 0 12 -222 12 -1080z m-590 -110 l0 -970 -163 0 -163 0 -1 653 c-1
358 1 766 5 906 l7 254 100 39 c55 21 125 50 155 63 30 13 56 24 58 24 1 1 2
-435 2 -969z m3080 838 l160 -92 0 -212 0 -213 -27 -19 c-65 -45 -1240 -692
-1258 -692 -5 0 -207 113 -273 152 l-33 20 203 115 c531 301 788 445 953 535
l100 55 3 222 c1 121 5 221 8 221 3 0 77 -41 164 -92z m-962 -277 c15 -10 64
-41 110 -69 l82 -50 -102 -60 c-57 -32 -149 -84 -204 -116 l-102 -56 -246 0
-246 0 0 145 0 145 213 0 c230 0 303 10 397 53 68 31 66 31 98 8z"/>
</g>
</svg>
